<svg id="Capa_1" enable-background="new 0 0 512 512" height="512" viewBox="0 0 512 512" width="512" xmlns="http://www.w3.org/2000/svg"><g><g><path d="m221.328 306.273h69.344v51.072h-69.344z" fill="#407093"/><path d="m354.95 279.784h-30.758v-42.235h30.758c4.604 0 8.336 3.732 8.336 8.336v25.564c0 4.603-3.732 8.335-8.336 8.335z" fill="#5c90b9"/><path d="m157.05 279.784h30.758v-42.235h-30.758c-4.604 0-8.336 3.732-8.336 8.336v25.564c0 4.603 3.732 8.335 8.336 8.335z" fill="#5c90b9"/><path d="m121.173 404.641h31.304v79.511h-31.304z" fill="#407093"/><path d="m359.523 404.641h31.304v79.511h-31.304z" fill="#407093"/><path d="m311.638 318.401h-111.276c-12.323 0-22.313-9.99-22.313-22.313v-71.521c0-12.323 9.99-22.313 22.313-22.313h111.276c12.323 0 22.313 9.99 22.313 22.313v71.521c0 12.323-9.99 22.313-22.313 22.313z" fill="#81a7c6"/><path d="m311.638 202.254h-65.333c12.323 0 22.313 9.99 22.313 22.313v71.521c0 12.323-9.99 22.313-22.313 22.313h65.333c12.323 0 22.313-9.99 22.313-22.313v-71.521c0-12.323-9.99-22.313-22.313-22.313z" fill="#5c90b9"/><path d="m374.239 427.226h-236.478c-14.228 0-25.761-11.534-25.761-25.761 0-14.228 11.534-25.761 25.761-25.761h236.477c14.228 0 25.761 11.534 25.761 25.761.001 14.227-11.533 25.761-25.76 25.761z" fill="#5c90b9"/><path d="m359.523 484.152h-207.046v-117.565c0-9.427 7.642-17.069 17.069-17.069h172.908c9.427 0 17.069 7.642 17.069 17.069z" fill="#4073c8"/><path d="m342.454 349.518h-65.333c9.427 0 17.069 7.642 17.069 17.069v117.565h65.333v-117.565c0-9.427-7.642-17.069-17.069-17.069z" fill="#3b66c1"/><path d="m311.248 421.575h-110.496c-3.256 0-5.895-2.639-5.895-5.895v-24.431c0-3.256 2.639-5.895 5.895-5.895h110.496c3.256 0 5.895 2.639 5.895 5.895v24.431c0 3.256-2.639 5.895-5.895 5.895z" fill="#95d6a4"/><path d="m311.248 385.354h-17.058v36.221h17.058c3.256 0 5.895-2.639 5.895-5.895v-24.43c0-3.257-2.639-5.896-5.895-5.896z" fill="#78c2a4"/><circle cx="224.803" cy="258.667" fill="#fdf9e2" r="17.503"/><circle cx="287.197" cy="258.667" fill="#fdf9e2" r="17.503"/><g><path d="m311.248 377.854h-54.858c-4.142 0-7.5 3.358-7.5 7.5s3.358 7.5 7.5 7.5h53.253v21.221h-107.287v-21.221h18.971c4.142 0 7.5-3.358 7.5-7.5s-3.358-7.5-7.5-7.5h-20.576c-7.386 0-13.396 6.009-13.396 13.396v24.43c0 7.386 6.009 13.396 13.396 13.396h110.496c7.386 0 13.396-6.009 13.396-13.396v-24.43c.001-7.387-6.009-13.396-13.395-13.396z"/><path d="m224.803 233.664c-13.787 0-25.003 11.216-25.003 25.003s11.216 25.003 25.003 25.003 25.003-11.216 25.003-25.003-11.216-25.003-25.003-25.003zm0 35.005c-5.516 0-10.003-4.487-10.003-10.003s4.487-10.003 10.003-10.003 10.003 4.487 10.003 10.003-4.487 10.003-10.003 10.003z"/><path d="m287.197 233.664c-13.787 0-25.003 11.216-25.003 25.003s11.216 25.003 25.003 25.003 25.003-11.216 25.003-25.003-11.217-25.003-25.003-25.003zm0 35.005c-5.516 0-10.003-4.487-10.003-10.003s4.487-10.003 10.003-10.003 10.003 4.487 10.003 10.003-4.488 10.003-10.003 10.003z"/></g><g><g><g><path d="m483.953 98.28h-455.906c-11.348 0-20.547-9.199-20.547-20.547 0-11.348 9.199-20.547 20.547-20.547h455.906c11.348 0 20.547 9.199 20.547 20.547 0 11.348-9.199 20.547-20.547 20.547z" fill="#81a7c6"/></g></g></g><g><path d="m480.234 504.334h-448.468c-13.402 0-24.266-10.864-24.266-24.266 0-13.402 10.864-24.266 24.266-24.266h448.468c13.402 0 24.266 10.864 24.266 24.266 0 13.401-10.864 24.266-24.266 24.266z" fill="#81a7c6"/><g fill="#5c90b9"><path d="m483.953 57.186h-65.333c11.348 0 20.547 9.199 20.547 20.547v20.547h44.786c11.348 0 20.547-9.199 20.547-20.547 0-11.348-9.199-20.547-20.547-20.547z"/><path d="m480.234 504.334h-65.333c13.402 0 24.266-10.864 24.266-24.266v-24.266h41.067c13.402 0 24.266 10.864 24.266 24.266 0 13.401-10.864 24.266-24.266 24.266z"/></g></g></g><g><g><g><path d="m221.14 104.762 15.963 39.732c.886 2.206 3.025 3.651 5.402 3.651h26.991c2.377 0 4.516-1.445 5.402-3.651l15.963-39.732z" fill="#365e7d"/><path d="m219.447 113.338h73.106c4.016 0 7.271-3.255 7.271-7.271v-56.668c0-4.016-3.255-7.271-7.271-7.271h-73.106c-4.016 0-7.271 3.255-7.271 7.271v56.668c0 4.016 3.255 7.271 7.271 7.271z" fill="#407093"/></g></g></g><g><path d="m480.234 448.302h-81.907v-23.924c5.681-5.97 9.173-14.042 9.173-22.914 0-18.34-14.921-33.261-33.262-33.261h-7.215v-1.616c0-13.547-11.021-24.569-24.569-24.569h-44.282v-16.117h13.466c16.438 0 29.812-13.374 29.812-29.812v-8.804h13.5c8.732 0 15.836-7.104 15.836-15.835v-25.564c0-8.732-7.104-15.836-15.836-15.836h-13.5v-5.482c0-16.438-13.374-29.812-29.812-29.812h-111.276c-16.438 0-29.812 13.374-29.812 29.812v5.482h-13.5c-8.732 0-15.836 7.104-15.836 15.836v25.564c0 8.732 7.104 15.835 15.836 15.835h13.5v8.804c0 16.438 13.374 29.812 29.812 29.812h13.466v16.117h-44.282c-13.547 0-24.569 11.022-24.569 24.569v1.616h-7.215c-18.34 0-33.262 14.921-33.262 33.262 0 8.872 3.492 16.944 9.173 22.914v23.923h-81.907c-17.516 0-31.766 14.25-31.766 31.765 0 17.516 14.25 31.766 31.766 31.766h448.468c17.516 0 31.766-14.25 31.766-31.766 0-17.515-14.25-31.765-31.766-31.765zm-138.783-203.253h13.5c.461 0 .836.375.836.836v25.564c0 .46-.375.835-.836.835h-13.5zm-170.902 27.235h-13.5c-.461 0-.836-.375-.836-.835v-25.564c0-.461.375-.836.836-.836h13.5zm196.474 110.919h7.215c10.069 0 18.262 8.192 18.262 18.262s-8.192 18.261-18.262 18.261h-7.215zm7.215 51.523c3.15 0 6.199-.44 9.088-1.262v14.838h-16.304v-13.576zm-173.876-123.825c-8.167 0-14.812-6.645-14.812-14.812v-71.521c0-8.167 6.645-14.812 14.812-14.812h111.276c8.167 0 14.812 6.645 14.812 14.812v71.521c0 8.167-6.645 14.812-14.812 14.812zm82.81 15v16.117h-54.344v-16.117zm-113.626 31.117h172.908c5.276 0 9.569 4.293 9.569 9.569v81.715h-192.046v-81.715c0-5.276 4.293-9.569 9.569-9.569zm-31.784 26.185h7.215v36.523h-7.215c-10.069 0-18.262-8.192-18.262-18.262s8.192-18.261 18.262-18.261zm-9.089 50.261c2.89.822 5.939 1.262 9.088 1.262h7.215v13.576h-16.304v-14.838zm351.561 63.369h-448.468c-9.245 0-16.766-7.521-16.766-16.766s7.521-16.766 16.766-16.766h448.468c9.245 0 16.766 7.521 16.766 16.766s-7.521 16.766-16.766 16.766z"/><path d="m483.953 49.686h-176.629v-.287c0-8.145-6.626-14.771-14.771-14.771h-29.053v-2.821c0-17.446-14.194-31.64-31.641-31.64h-119.718c-17.447 0-31.641 14.193-31.641 31.64v58.973h-52.453c-7.194 0-13.047-5.853-13.047-13.047s5.853-13.047 13.047-13.047h24.891c4.142 0 7.5-3.358 7.5-7.5s-3.358-7.5-7.5-7.5h-24.891c-15.465 0-28.047 12.582-28.047 28.047s12.582 28.047 28.047 28.047h6.3v9.664c0 16.86 13.716 30.576 30.576 30.576s30.577-13.716 30.577-30.576v-9.664h109.176v.287c0 8.145 6.626 14.771 14.771 14.771h.069l10.629 26.452c2.039 5.075 6.891 8.354 12.361 8.354h5.995v13.689c0 4.142 3.358 7.5 7.5 7.5s7.5-3.358 7.5-7.5v-13.689h5.996c5.469 0 10.321-3.279 12.361-8.354l10.628-26.452h.069c8.145 0 14.771-6.626 14.771-14.771v-.287h176.629c15.465 0 28.047-12.582 28.047-28.047s-12.584-28.047-28.049-28.047zm-403.453 65.758c0 8.589-6.988 15.576-15.577 15.576s-15.576-6.987-15.576-15.576v-9.664h31.153zm138.947-80.816c-8.145 0-14.771 6.626-14.771 14.771v.287h-81.613c-4.142 0-7.5 3.358-7.5 7.5s3.358 7.5 7.5 7.5h81.613v26.094h-109.176v-58.973c0-9.175 7.465-16.64 16.641-16.64h119.719c9.176 0 16.641 7.465 16.641 16.64v2.821zm48.914 106.017h-24.722l-7.958-19.807h40.637zm23.963-34.807h-72.648v-56.21h72.648zm191.629-15.058h-176.629v-26.094h176.629c7.194 0 13.047 5.853 13.047 13.047s-5.853 13.047-13.047 13.047z"/></g></g></svg>